<svg width="360" height="240" viewBox="0 0 360 240" fill="none" xmlns="http://www.w3.org/2000/svg" role="img" aria-labelledby="title desc">
  <title id="title">TALOS 空状态插图</title>
  <desc id="desc">空白面板、紫晶和细线网络组成的空状态插图。</desc>
  <defs>
    <linearGradient id="panel" x1="72" y1="54" x2="282" y2="190" gradientUnits="userSpaceOnUse">
      <stop stop-color="#282240"/>
      <stop offset="1" stop-color="#121322"/>
    </linearGradient>
    <linearGradient id="gem" x1="154" y1="88" x2="204" y2="166" gradientUnits="userSpaceOnUse">
      <stop stop-color="#E6D7FF"/>
      <stop offset="0.48" stop-color="#9D6CFF"/>
      <stop offset="1" stop-color="#2B1A55"/>
    </linearGradient>
  </defs>
  <rect width="360" height="240" rx="24" fill="#0F0D18" fill-opacity="0"/>
  <rect x="54" y="42" width="252" height="156" rx="18" fill="url(#panel)" stroke="#B99DFF" stroke-opacity="0.18"/>
  <path d="M180 74L214 94L226 138L180 178L134 138L146 94L180 74Z" fill="url(#gem)" stroke="#D7C4FF" stroke-opacity="0.45"/>
  <path d="M146 94L180 116L214 94M134 138L180 116L226 138M180 116V178" stroke="#F4EEFF" stroke-opacity="0.25"/>
  <path d="M85 78H128M232 78H276M82 166H138M222 166H278" stroke="#D7C4FF" stroke-opacity="0.22" stroke-linecap="round"/>
  <path d="M90 124L132 106L158 128M202 128L232 108L274 124" stroke="#8F6BFF" stroke-opacity="0.28"/>
  <g fill="#D7C4FF" fill-opacity="0.72">
    <circle cx="90" cy="124" r="3"/>
    <circle cx="132" cy="106" r="3"/>
    <circle cx="158" cy="128" r="3"/>
    <circle cx="202" cy="128" r="3"/>
    <circle cx="232" cy="108" r="3"/>
    <circle cx="274" cy="124" r="3"/>
  </g>
  <text x="180" y="220" text-anchor="middle" fill="#B9AFD4" font-family="Segoe UI, Microsoft YaHei, sans-serif" font-size="13">等待选择材料</text>
</svg>
