<svg width="640" height="260" viewBox="0 0 640 260" fill="none" xmlns="http://www.w3.org/2000/svg" role="img" aria-labelledby="title desc">
  <title id="title">紫色知识图谱纹理</title>
  <desc id="desc">由节点和连线组成的抽象知识网络背景。</desc>
  <defs>
    <radialGradient id="nodeGlow" cx="50%" cy="50%" r="50%">
      <stop stop-color="#CDB8FF"/>
      <stop offset="0.58" stop-color="#8B5CF6" stop-opacity="0.46"/>
      <stop offset="1" stop-color="#8B5CF6" stop-opacity="0"/>
    </radialGradient>
    <filter id="blurGlow" x="-80%" y="-80%" width="260%" height="260%" color-interpolation-filters="sRGB">
      <feGaussianBlur stdDeviation="7"/>
    </filter>
  </defs>
  <rect width="640" height="260" fill="#0F0D18" fill-opacity="0"/>
  <g stroke="#8F6BFF" stroke-opacity="0.26" stroke-width="1">
    <path d="M45 196L122 158L188 202L264 122L342 146L414 80L512 118L590 58"/>
    <path d="M122 158L156 78L264 122L286 44L414 80"/>
    <path d="M188 202L342 146L468 210L512 118"/>
    <path d="M45 196L156 78L286 44L590 58"/>
    <path d="M342 146L512 118L468 210"/>
  </g>
  <g>
    <circle cx="45" cy="196" r="16" fill="url(#nodeGlow)" filter="url(#blurGlow)"/>
    <circle cx="122" cy="158" r="18" fill="url(#nodeGlow)" filter="url(#blurGlow)"/>
    <circle cx="156" cy="78" r="14" fill="url(#nodeGlow)" filter="url(#blurGlow)"/>
    <circle cx="188" cy="202" r="11" fill="url(#nodeGlow)" filter="url(#blurGlow)"/>
    <circle cx="264" cy="122" r="20" fill="url(#nodeGlow)" filter="url(#blurGlow)"/>
    <circle cx="286" cy="44" r="12" fill="url(#nodeGlow)" filter="url(#blurGlow)"/>
    <circle cx="342" cy="146" r="15" fill="url(#nodeGlow)" filter="url(#blurGlow)"/>
    <circle cx="414" cy="80" r="17" fill="url(#nodeGlow)" filter="url(#blurGlow)"/>
    <circle cx="468" cy="210" r="13" fill="url(#nodeGlow)" filter="url(#blurGlow)"/>
    <circle cx="512" cy="118" r="18" fill="url(#nodeGlow)" filter="url(#blurGlow)"/>
    <circle cx="590" cy="58" r="14" fill="url(#nodeGlow)" filter="url(#blurGlow)"/>
  </g>
  <g fill="#D7C4FF">
    <circle cx="45" cy="196" r="3"/>
    <circle cx="122" cy="158" r="4"/>
    <circle cx="156" cy="78" r="3"/>
    <circle cx="188" cy="202" r="2.8"/>
    <circle cx="264" cy="122" r="4.4"/>
    <circle cx="286" cy="44" r="2.6"/>
    <circle cx="342" cy="146" r="3.4"/>
    <circle cx="414" cy="80" r="3.8"/>
    <circle cx="468" cy="210" r="2.8"/>
    <circle cx="512" cy="118" r="4"/>
    <circle cx="590" cy="58" r="3"/>
  </g>
</svg>
